<svg xmlns="http://www.w3.org/2000/svg">
  <symbol id="icon-logo-eatly" viewBox="0 0 112 43" width="112" height="43" fill="none">
    <rect x="3.67383" y="4.97827" width="42.2674" height="37.3367" rx="6.96951" fill="#6C5FBC"/>
    <rect x="1.0075" y="1.0075" width="40.2524" height="35.3217" rx="5.96201" fill="#DBD9EE" stroke="#6C5FBC" stroke-width="2.01499"/>
    <path d="M32.624 12.051L9.72243 11.9498" stroke="#6C5FBC" stroke-width="2.08432" stroke-linecap="round" stroke-linejoin="round"/>
    <path d="M32.6096 16.6363L27.5162 16.6138C25.4095 16.6044 23.7056 14.5424 23.7133 12.0114C23.7211 9.48047 25.4376 7.4335 27.5443 7.44281L32.6377 7.46533" stroke="#6C5FBC" stroke-width="2.08432" stroke-linecap="round" stroke-linejoin="round"/>
    <path d="M17.3611 26.7221L10.7067 26.648C10.1614 26.6456 9.70458 26.1076 9.6942 25.4525L9.64992 23.7254C9.63962 23.0405 10.0999 22.462 10.6699 22.4645L17.25 22.5383L17.3611 26.7221Z" stroke="#6C5FBC" stroke-width="2.08432" stroke-linecap="round" stroke-linejoin="round"/>
    <path d="M27.8134 29.2104L18.4076 29.0943C17.8624 29.0919 17.4055 28.5539 17.3951 27.8988L17.2752 22.5237L32.555 22.7103L32.5653 23.3952C32.6421 26.6412 30.5025 29.252 27.8134 29.2104Z" stroke="#6C5FBC" stroke-width="2.08432" stroke-linecap="round" stroke-linejoin="round"/>
    <path d="M69.3081 21.6456C69.3081 22.0691 69.2798 22.4503 69.2234 22.7891H60.6472C60.7178 23.6361 61.0142 24.2996 61.5366 24.7796C62.0589 25.2596 62.7012 25.4996 63.4635 25.4996C64.5647 25.4996 65.3482 25.0266 65.8141 24.0808H69.0116C68.6728 25.2102 68.0234 26.1419 67.0634 26.876C66.1035 27.596 64.9247 27.956 63.5271 27.956C62.3977 27.956 61.3813 27.7089 60.4778 27.2148C59.5884 26.7066 58.8896 25.9937 58.3814 25.0761C57.8873 24.1584 57.6402 23.0996 57.6402 21.8997C57.6402 20.6856 57.8873 19.6198 58.3814 18.7021C58.8755 17.7845 59.5672 17.0787 60.4566 16.5846C61.346 16.0905 62.3695 15.8434 63.5271 15.8434C64.6423 15.8434 65.6376 16.0834 66.5129 16.5634C67.4022 17.0434 68.0869 17.7281 68.5669 18.6174C69.061 19.4927 69.3081 20.5021 69.3081 21.6456ZM66.2376 20.7985C66.2235 20.0362 65.9482 19.4292 65.4117 18.9774C64.8753 18.5116 64.2188 18.2786 63.4424 18.2786C62.7083 18.2786 62.0871 18.5045 61.5789 18.9563C61.0848 19.3939 60.7813 20.008 60.6683 20.7985H66.2376ZM70.7096 21.8573C70.7096 20.6715 70.9426 19.6198 71.4084 18.7021C71.8884 17.7845 72.5308 17.0787 73.3354 16.5846C74.1542 16.0905 75.0648 15.8434 76.0671 15.8434C76.9424 15.8434 77.7047 16.0199 78.3541 16.3728C79.0176 16.7257 79.547 17.1704 79.9423 17.7069V16.034H82.9281V27.7654H79.9423V26.0501C79.5611 26.6007 79.0317 27.0595 78.3541 27.4266C77.6906 27.7795 76.9212 27.956 76.0459 27.956C75.0577 27.956 74.1542 27.7019 73.3354 27.1936C72.5308 26.6854 71.8884 25.9725 71.4084 25.0549C70.9426 24.1231 70.7096 23.0573 70.7096 21.8573ZM79.9423 21.8997C79.9423 21.1797 79.8011 20.5656 79.5188 20.0574C79.2364 19.5351 78.8553 19.1398 78.3753 18.8715C77.8953 18.5892 77.38 18.448 76.8294 18.448C76.2789 18.448 75.7707 18.5821 75.3048 18.8504C74.8389 19.1186 74.4578 19.5139 74.1613 20.0362C73.8789 20.5444 73.7378 21.1515 73.7378 21.8573C73.7378 22.5632 73.8789 23.1844 74.1613 23.7208C74.4578 24.2431 74.8389 24.6455 75.3048 24.9278C75.7848 25.2102 76.293 25.3513 76.8294 25.3513C77.38 25.3513 77.8953 25.2172 78.3753 24.949C78.8553 24.6667 79.2364 24.2714 79.5188 23.7632C79.8011 23.2408 79.9423 22.6197 79.9423 21.8997ZM89.2752 18.4692V24.1443C89.2752 24.5396 89.3669 24.829 89.5505 25.0125C89.7481 25.1819 90.0728 25.2666 90.5246 25.2666H91.901V27.7654H90.0375C87.5388 27.7654 86.2894 26.5513 86.2894 24.1231V18.4692H84.8918V16.034H86.2894V13.1329H89.2752V16.034H91.901V18.4692H89.2752ZM96.9979 12.0953V27.7654H94.0333V12.0953H96.9979ZM111.15 16.034L103.887 33.3134H100.732L103.273 27.4689L98.5717 16.034H101.896L104.924 24.229L107.995 16.034H111.15Z" fill="#6C5FBC"/>
  </symbol>

  <symbol id="icon-burger" viewBox="0 0 34 25" width="34" height="25" fill="none">
    <path d="M1 1H32.5H1Z" fill="#918F8F"/>
    <path d="M1 1H32.5" stroke="#282828" stroke-width="2" stroke-linecap="round"/>
    <path d="M1 12.1628H32.5H1Z" fill="#918F8F"/>
    <path d="M1 12.1628H32.5" stroke="#282828" stroke-width="2" stroke-linecap="round"/>
    <path d="M1 23.3257H32.5H1Z" fill="#918F8F"/>
    <path d="M1 23.3257H32.5" stroke="#282828" stroke-width="2" stroke-linecap="round"/>
  </symbol>

  <symbol id="icon-green-star" viewBox="0 0 30 28" width="30" height="28" fill="none">
    <path d="M29.4585 10.701H18.204L14.7395 0L11.2545 10.701L0 10.6805L9.10199 17.302L5.617 28.003L14.719 21.3815L23.821 28.003L20.3565 17.302L29.4585 10.701Z" fill="#00B67A"/>
  </symbol>

  <symbol id="icon-star" viewBox="0 0 16 16" width="16" height="16" fill="none">
    <path d="M6.95816 0.741543C7.27942 -0.247181 8.6782 -0.247181 8.99945 0.741543L10.1473 4.2742C10.291 4.71637 10.703 5.01575 11.1679 5.01575H14.8824C15.922 5.01575 16.3542 6.34607 15.5132 6.95713L12.5081 9.14044C12.132 9.41371 11.9746 9.89811 12.1183 10.3403L13.2661 13.8729C13.5874 14.8617 12.4557 15.6838 11.6147 15.0728L8.6096 12.8895C8.23347 12.6162 7.72415 12.6162 7.34801 12.8895L4.34295 15.0728C3.5019 15.6838 2.37026 14.8617 2.69151 13.8729L3.83935 10.3403C3.98302 9.89811 3.82563 9.41371 3.44949 9.14044L0.444434 6.95713C-0.396625 6.34607 0.0356224 5.01575 1.07523 5.01575H4.78969C5.25461 5.01575 5.66666 4.71637 5.81033 4.2742L6.95816 0.741543Z" fill="#F59E0B"/>
  </symbol>

  <symbol id="icon-lines-head" viewBox="0 0 42 27" width="42" height="27" fill="none">
    <path d="M3.03562 12.2091C6.63998 8.52891 11.0587 7.91522 15.5406 7.50262C21.1348 6.98761 26.8271 6.78583 31.1569 1.32517" stroke="#685BB8" stroke-width="2.65" stroke-miterlimit="1.5" stroke-linecap="round" stroke-linejoin="round"/>
    <path d="M1.63661 22.5537C4.92103 17.8805 9.69807 15.1189 15.3404 14.4964C18.2926 14.1708 21.2864 14.4949 24.22 13.9375C30.8291 12.6812 36.9687 8.66921 39.8474 2.46469" stroke="#685BB8" stroke-width="2.65" stroke-miterlimit="1.5" stroke-linecap="round" stroke-linejoin="round"/>
    <path d="M30.5218 18.5443C28.3334 19.9474 25.9587 21.0158 23.3509 21.3223C18.1575 21.9324 12.7177 21.1226 8.77443 25.3249" stroke="#685BB8" stroke-width="2.65" stroke-miterlimit="1.5" stroke-linecap="round" stroke-linejoin="round"/>
  </symbol>

  <symbol id="icon-arrow-head" viewBox="0 0 101 98" width="101" height="98" fill="none">
    <path d="M71.6674 10.7111C80.803 24.3855 86.0196 40.0142 80.7461 55.9952C75.9861 70.42 63.0132 78.9641 48.1158 68.2622C41.0635 63.1962 36.4872 52.9723 41.0691 45.3764C46.1738 36.9138 57.5029 44.4112 60.5762 50.1704C67.7546 63.6215 63.1038 81.7597 47.3119 89.9534C28.6107 99.6567 20.562 81.1081 20.7098 81.1037" stroke="#665AB5" stroke-width="2.65" stroke-miterlimit="1.5" stroke-linecap="round" stroke-linejoin="round"/>
    <path d="M91.0256 14.5963C89.1011 14.9712 87.2152 14.5933 85.3117 14.3026C79.0611 13.3488 72.67 10.5339 68.7869 5.89197C71.0236 11.8454 71.6846 20.2492 66.9237 25.2906" stroke="#665AB5" stroke-width="2.65" stroke-miterlimit="1.5" stroke-linecap="round" stroke-linejoin="round"/>
  </symbol>
 
  <symbol id="icon-diagram" viewBox="0 0 209 99" width="209" height="99" fill="none">
    <path d="M0.994141 83.4098C12.0642 83.4098 13.1354 97.8229 24.9196 97.8229C36.7038 97.8229 33.8471 56.8594 44.9171 56.8594C55.9871 56.8594 49.9164 22.3439 65.2716 22.3439C80.6268 22.3439 73.4848 56.8594 87.4116 56.8594C101.338 56.8594 99.1958 16.568 108.123 16.568C117.051 16.568 114.551 40.5499 125.264 40.5499C135.977 40.5499 130.977 0.994141 142.405 0.994141C153.832 0.994141 152.76 18.2608 163.116 18.2608C173.472 18.2608 174.543 38.2741 188.827 38.2741C203.111 38.2741 194.184 60.5811 207.753 60.5811" stroke="#6C5FBC" stroke-width="1.98779" stroke-linecap="round" stroke-linejoin="round"/>
    <path d="M173.092 21.9824C174.912 21.9824 176.503 23.5729 176.503 25.6816C176.503 27.7903 174.912 29.3809 173.092 29.3809C171.272 29.3806 169.682 27.7901 169.682 25.6816C169.682 23.5731 171.272 21.9827 173.092 21.9824Z" fill="#C5BFED" stroke="#6C5FBC" stroke-width="2.22012"/>
    <rect x="172.476" y="3.78418" width="25.6489" height="11.9084" rx="5.95422" fill="#6C5FBC"/>
    <path d="M181.119 10.5006C181.119 10.693 181.069 10.8743 180.969 11.0445C180.873 11.211 180.728 11.3498 180.536 11.4608C180.347 11.5681 180.123 11.631 179.864 11.6495V12.0991H179.509V11.644C179.139 11.6107 178.841 11.4997 178.616 11.3109C178.39 11.1185 178.273 10.8595 178.266 10.5339H179.098C179.121 10.8003 179.257 10.9613 179.509 11.0168V9.95667C179.243 9.89007 179.028 9.82347 178.865 9.75686C178.702 9.69026 178.562 9.58295 178.443 9.43495C178.325 9.28694 178.266 9.08528 178.266 8.82997C178.266 8.50805 178.381 8.24533 178.61 8.04182C178.843 7.83831 179.143 7.72176 179.509 7.69216V7.24258H179.864V7.69216C180.22 7.72176 180.503 7.82906 180.714 8.01407C180.928 8.19908 181.048 8.4544 181.074 8.78001H180.236C180.225 8.67271 180.186 8.5802 180.12 8.5025C180.057 8.42109 179.972 8.36374 179.864 8.33044V9.37944C180.142 9.44975 180.36 9.5182 180.519 9.5848C180.682 9.64771 180.823 9.75316 180.941 9.90117C181.059 10.0455 181.119 10.2453 181.119 10.5006ZM179.076 8.79111C179.076 8.91322 179.113 9.01312 179.187 9.09083C179.261 9.16483 179.369 9.22589 179.509 9.27399V8.31379C179.376 8.33229 179.27 8.38224 179.193 8.46365C179.115 8.54505 179.076 8.65421 179.076 8.79111ZM179.864 11.0279C180.005 11.002 180.114 10.9446 180.192 10.8558C180.273 10.767 180.314 10.6597 180.314 10.5339C180.314 10.4118 180.275 10.3137 180.197 10.2397C180.12 10.1657 180.009 10.1047 179.864 10.0566V11.0279ZM181.864 10.8281V10.2175L183.679 7.62H184.584V10.1509H185.072V10.8281H184.584V11.6162H183.807V10.8281H181.864ZM183.857 8.45255L182.719 10.1509H183.857V8.45255ZM185.567 9.5404C185.567 8.90027 185.682 8.39889 185.911 8.03627C186.144 7.67365 186.529 7.49235 187.065 7.49235C187.602 7.49235 187.985 7.67365 188.214 8.03627C188.447 8.39889 188.564 8.90027 188.564 9.5404C188.564 10.1842 188.447 10.6893 188.214 11.0556C187.985 11.422 187.602 11.6051 187.065 11.6051C186.529 11.6051 186.144 11.422 185.911 11.0556C185.682 10.6893 185.567 10.1842 185.567 9.5404ZM187.798 9.5404C187.798 9.26659 187.78 9.03718 187.743 8.85217C187.709 8.66346 187.639 8.5099 187.532 8.39149C187.428 8.27309 187.273 8.21388 187.065 8.21388C186.858 8.21388 186.701 8.27309 186.594 8.39149C186.49 8.5099 186.42 8.66346 186.383 8.85217C186.349 9.03718 186.333 9.26659 186.333 9.5404C186.333 9.82162 186.349 10.0584 186.383 10.2508C186.416 10.4395 186.486 10.5931 186.594 10.7115C186.701 10.8262 186.858 10.8836 187.065 10.8836C187.273 10.8836 187.43 10.8262 187.537 10.7115C187.645 10.5931 187.715 10.4395 187.748 10.2508C187.781 10.0584 187.798 9.82162 187.798 9.5404ZM190.054 10.4784C190.084 10.6412 190.15 10.767 190.254 10.8558C190.361 10.9409 190.504 10.9835 190.681 10.9835C190.911 10.9835 191.077 10.8891 191.181 10.7004C191.284 10.508 191.336 10.1861 191.336 9.73466C191.251 9.85307 191.131 9.94557 190.976 10.0122C190.824 10.0788 190.659 10.1121 190.482 10.1121C190.245 10.1121 190.03 10.064 189.838 9.96777C189.649 9.86787 189.499 9.72171 189.388 9.5293C189.277 9.33319 189.222 9.09638 189.222 8.81886C189.222 8.40814 189.344 8.08253 189.588 7.84201C189.832 7.5978 190.165 7.47569 190.587 7.47569C191.112 7.47569 191.482 7.64405 191.697 7.98077C191.915 8.31749 192.025 8.82441 192.025 9.50155C192.025 9.98258 191.982 10.3766 191.897 10.6838C191.815 10.9909 191.673 11.224 191.47 11.3831C191.27 11.5422 190.996 11.6218 190.648 11.6218C190.374 11.6218 190.141 11.57 189.949 11.4664C189.756 11.359 189.608 11.2203 189.505 11.0501C189.405 10.8762 189.347 10.6856 189.333 10.4784H190.054ZM190.643 9.47935C190.835 9.47935 190.987 9.42015 191.098 9.30174C191.209 9.18333 191.264 9.02423 191.264 8.82441C191.264 8.6061 191.205 8.43774 191.087 8.31934C190.972 8.19723 190.815 8.13618 190.615 8.13618C190.415 8.13618 190.256 8.19908 190.137 8.32489C190.023 8.447 189.965 8.6098 189.965 8.81331C189.965 9.00942 190.021 9.17038 190.132 9.29619C190.247 9.4183 190.417 9.47935 190.643 9.47935Z" fill="white"/>
  </symbol>

  <symbol id="icon-lines-foot" viewBox="0 0 39 36" width="39" height="36" fill="none">
    <path d="M27.3376 30.445C30.2316 23.9755 32.3782 17.2635 34.9719 10.689" stroke="#685BB8" stroke-width="2.65" stroke-miterlimit="1.5" stroke-linecap="round" stroke-linejoin="round"/>
    <path d="M7.92894 34.3257C15.8316 25.8683 22.9341 16.4185 29.461 6.88201" stroke="#685BB8" stroke-width="2.65" stroke-miterlimit="1.5" stroke-linecap="round" stroke-linejoin="round"/>
    <path d="M1.63457 15.161C9.15324 12.6007 18.5471 5.75686 25.4724 1.32494" stroke="#685BB8" stroke-width="2.65" stroke-miterlimit="1.5" stroke-linecap="round" stroke-linejoin="round"/>
  </symbol>
  
  <symbol id="icon-line1-mob" viewBox="0 0 375 148" width="375" height="148" fill="none">
    <path opacity="0.2" d="M733.05 -214.12C701.33 -227.648 672.193 -243.296 636.035 -249.691C610.209 -254.258 583.64 -253.931 556.83 -247.513C506.843 -235.547 457.279 -216.141 415.02 -189.097C371.837 -161.462 325.764 -135.211 289.505 -101.023C255.794 -69.2369 225.778 -33.918 190.149 -3.58695C130.453 47.2333 48.2487 73.6745 -29.4921 94.2165C-70.62 105.084 -111.958 115.732 -153.319 125.662C-179.274 131.894 -206.456 135.847 -231.418 145.167" stroke="#A596FF" stroke-width="4.01667" stroke-linecap="round"/>
  </symbol>

  <symbol id="icon-line2-mob" viewBox="0 0 375 166" width="375" height="166" fill="none">
    <path opacity="0.2" d="M733.883 -169.034C704.525 -181.563 677.557 -196.055 644.09 -201.98C620.188 -206.212 595.598 -205.911 570.785 -199.972C524.522 -188.898 478.652 -170.936 439.543 -145.9C399.58 -120.318 356.941 -96.0168 323.387 -64.3662C292.19 -34.939 264.414 -2.24062 231.442 25.839C176.197 72.887 100.118 97.36 28.1698 116.371C-9.89362 126.429 -48.1515 136.284 -86.431 145.474C-110.453 151.241 -135.609 154.898 -158.711 163.525" stroke="#A596FF" stroke-width="4.01667" stroke-linecap="round"/>
  </symbol>

  <symbol id="icon-line3-mob" viewBox="0 0 76 233" width="76" height="233" fill="none">
    <path opacity="0.2" d="M103.179 1.60735C88.7476 10.665 72.4103 19.1883 59.3212 29.9431C46.5133 40.4669 34.2679 54.0121 24.6914 66.6241C7.04358 89.8656 3.12393 111.912 1.87487 136.484C-0.186457 177.036 9.79696 212.978 26.7854 247.337C38.032 270.083 50.2186 292.065 63.9779 313.45C68.1788 319.979 71.795 328.042 79.8594 331.44" stroke="#A596FF" stroke-width="3.21454" stroke-linecap="round"/>
  </symbol>

  <symbol id="icon-line4-mob" viewBox="0 0 40 232" width="40" height="232" fill="none">
    <path opacity="0.2" d="M106.211 1.60754C91.3476 10.9367 74.5213 19.7153 61.0407 30.7929C47.8497 41.6325 35.2385 55.5848 25.3759 68.5759C7.20121 92.5161 3.16621 115.226 1.88214 140.539C-0.236944 182.313 10.0495 219.339 27.5509 254.735C39.137 278.168 51.6913 300.814 65.8654 322.845C70.1929 329.571 73.9184 337.877 82.225 341.379" stroke="#A596FF" stroke-width="3.21454" stroke-linecap="round"/>
  </symbol>

  <symbol id="icon-line1-tbl" viewBox="0 0 273 157" width="273" height="157" fill="none">
    <path opacity="0.2" d="M262.882 410.932C266.701 388.557 272.272 367.511 270.845 343.385C269.826 326.153 265.558 309.194 257.353 293.013C242.056 262.842 222.058 234.08 198.285 211.163C173.992 187.745 150.144 162.264 122.712 144.281C97.2073 127.561 70.0046 113.747 45.1388 95.5772C3.47572 65.133 -26.0123 16.5516 -51.0408 -30.0748C-64.2819 -54.742 -77.4144 -79.5772 -90.091 -104.537C-98.046 -120.2 -104.729 -136.996 -114.51 -151.552" stroke="#A596FF" stroke-width="2.8563" stroke-linecap="round"/>
  </symbol>

  <symbol id="icon-line2-tbl" viewBox="0 0 305 157" width="305" height="157" fill="none">
    <path opacity="0.2" d="M293.93 402.916C298.051 378.742 304.063 356.006 302.517 329.939C301.412 311.322 296.799 292.999 287.934 275.515C271.404 242.915 249.799 211.837 224.116 187.072C197.872 161.766 172.108 134.232 142.474 114.797C114.923 96.7277 85.5377 81.7977 58.6759 62.1616C13.6686 29.261 -18.1922 -23.2324 -45.2356 -73.6126C-59.5427 -100.266 -73.7326 -127.1 -87.4301 -154.07C-96.0256 -170.993 -103.247 -189.142 -113.815 -204.869" stroke="#A596FF" stroke-width="2.8563" stroke-linecap="round"/>
  </symbol>

  <symbol id="icon-line3-tbl" viewBox="0 0 91 157" width="91" height="157" fill="none">
    <path opacity="0.2" d="M177.686 -57.4907C160.99 -55.932 142.857 -55.6876 126.589 -52.0424C110.67 -48.4755 93.9048 -42.0045 79.8986 -35.1701C54.088 -22.5756 40.8688 -4.9441 28.8757 16.0911C9.08366 50.8054 1.91804 86.8102 1.60871 124.531C1.40394 149.502 2.36389 174.219 4.9704 199.108C5.76619 206.707 5.36845 215.394 10.9467 221.956" stroke="#A596FF" stroke-width="3.16355" stroke-linecap="round"/>
  </symbol>

  <symbol id="icon-line4-tbl" viewBox="0 0 63 157" width="63" height="157" fill="none">
    <path opacity="0.2" d="M182.959 -39.5651C165.763 -37.9593 147.087 -37.7075 130.331 -33.9522C113.936 -30.2777 96.6689 -23.6114 82.2434 -16.5706C55.6601 -3.59594 42.045 14.5679 29.6929 36.2381C9.30826 72.0003 1.9281 109.092 1.60951 147.951C1.39861 173.676 2.3873 199.139 5.07185 224.78C5.89147 232.609 5.48182 241.558 11.2271 248.318" stroke="#A596FF" stroke-width="3.16355" stroke-linecap="round"/>
  </symbol>

  <symbol id="icon-line1-lpt" viewBox="0 0 384 221" width="384" height="221" fill="none">
    <path opacity="0.2" d="M369.68 577.878C375.051 546.413 382.885 516.817 380.878 482.89C379.444 458.658 373.443 434.809 361.905 412.054C340.393 369.626 312.272 329.18 278.84 296.952C244.679 264.021 211.142 228.189 172.566 202.9C136.7 179.387 98.446 159.962 63.4785 134.41C4.88972 91.5978 -36.5779 23.2802 -71.7742 -42.2882C-90.3944 -76.9764 -108.862 -111.901 -126.689 -147.001C-137.875 -169.027 -147.273 -192.647 -161.028 -213.115" stroke="#A596FF" stroke-width="4.01667" stroke-linecap="round"/>
  </symbol>

  <symbol id="icon-line2-lpt" viewBox="0 0 428 221" width="428" height="221" fill="none">
    <path opacity="0.2" d="M413.34 566.6C419.134 532.606 427.589 500.633 425.415 463.977C423.861 437.797 417.374 412.03 404.907 387.442C381.662 341.6 351.28 297.896 315.163 263.07C278.258 227.484 242.027 188.764 200.355 161.433C161.61 136.023 120.288 115.028 82.5135 87.4146C19.2219 41.1481 -25.5823 -32.6707 -63.6122 -103.518C-83.7315 -140.999 -103.686 -178.735 -122.948 -216.66C-135.036 -240.46 -145.191 -265.98 -160.052 -288.097" stroke="#A596FF" stroke-width="4.01667" stroke-linecap="round"/>
  </symbol>

  <symbol id="icon-line3-lpt" viewBox="0 0 128 221" width="128" height="221" fill="none">
    <path opacity="0.2" d="M249.871 -80.8447C226.393 -78.6528 200.893 -78.3091 178.015 -73.183C155.629 -68.1671 132.053 -59.0673 112.357 -49.4564C76.0612 -31.7454 57.4716 -6.95103 40.6064 22.6297C12.7738 71.4467 2.69712 122.078 2.26213 175.123C1.97417 210.239 3.3241 244.997 6.9895 279.998C8.10859 290.684 7.54926 302.9 15.3937 312.128" stroke="#A596FF" stroke-width="4.44874" stroke-linecap="round"/>
  </symbol>

  <symbol id="icon-line4-lpt" viewBox="0 0 88 221" width="88" height="221" fill="none">
    <path opacity="0.2" d="M257.286 -55.6357C233.104 -53.3776 206.841 -53.0235 183.278 -47.7427C160.222 -42.5754 135.941 -33.2008 115.655 -23.2998C78.2719 -5.05417 59.1257 20.4887 41.7555 50.9625C13.0896 101.253 2.71126 153.413 2.26326 208.059C1.96667 244.235 3.35701 280.042 7.13216 316.1C8.28476 327.109 7.70868 339.694 15.788 349.2" stroke="#A596FF" stroke-width="4.44874" stroke-linecap="round"/>
  </symbol>



  <symbol id="icon-arrow-button" viewBox="0 0 18 18" width="18" height="18" fill="none">
    <path d="M3.69434 8.86963H14.0407" stroke="white" stroke-width="1.47805" stroke-linecap="round" stroke-linejoin="round"/>
    <path d="M8.86719 3.6958L14.0404 8.86899L8.86719 14.0422" stroke="white" stroke-width="1.47805" stroke-linecap="round" stroke-linejoin="round"/>
  </symbol>

  <symbol id="icon-arrow-quality" viewBox="0 0 33 112" width="33" height="112" fill="none">
    <path d="M14.1376 111.738C14.5253 112.02 15.0677 111.934 15.3491 111.546C15.6305 111.158 15.5442 110.616 15.1565 110.334L14.1376 111.738ZM1.12254 83.9266L0.265708 83.7914L1.12254 83.9266ZM22.6799 63.8754L22.4194 64.7028L22.6799 63.8754ZM29.1745 74.0729L28.3328 73.8635L29.1745 74.0729ZM20.1893 79.7587L20.1601 78.8918L20.1893 79.7587ZM4.9909 51.9132L4.14128 51.7383L4.9909 51.9132ZM26.2591 34.1779L26.0396 35.0172L26.2591 34.1779ZM31.3737 41.6892L30.508 41.6337L31.3737 41.6892ZM8.39676 16.519L9.19824 16.8508L8.39676 16.519ZM26.9124 0.867584L27.6556 1.31489C27.8188 1.04374 27.8214 0.705229 27.6623 0.431631C27.5033 0.158033 27.2079 -0.00723765 26.8915 0.000405964L26.9124 0.867584ZM22.0442 7.27404C21.7972 7.6845 21.9297 8.2175 22.3402 8.46454C22.7506 8.71158 23.2836 8.5791 23.5307 8.16864L22.0442 7.27404ZM18.4939 0.203236C18.015 0.214804 17.6361 0.612427 17.6476 1.09136C17.6592 1.57028 18.0568 1.94915 18.5358 1.93758L18.4939 0.203236ZM14.647 111.036C15.1565 110.334 15.1567 110.334 15.1568 110.335C15.1568 110.335 15.1568 110.335 15.1567 110.335C15.1566 110.334 15.1562 110.334 15.1555 110.334C15.1543 110.333 15.152 110.331 15.1489 110.329C15.1425 110.324 15.1324 110.317 15.1187 110.306C15.0913 110.286 15.0493 110.255 14.994 110.212C14.8832 110.128 14.7188 110.001 14.509 109.832C14.0892 109.495 13.4886 108.993 12.7736 108.342C11.3423 107.038 9.46064 105.142 7.65649 102.775C4.03549 98.0244 0.808054 91.4857 1.97937 84.0618L0.265708 83.7914C-1.01147 91.8863 2.52335 98.9024 6.27672 103.827C8.15975 106.297 10.1183 108.27 11.6054 109.624C12.3497 110.302 12.9778 110.827 13.422 111.184C13.6442 111.363 13.8205 111.499 13.9425 111.592C14.0036 111.639 14.051 111.675 14.0839 111.699C14.1003 111.711 14.1131 111.721 14.1221 111.727C14.1266 111.73 14.1301 111.733 14.1327 111.735C14.134 111.736 14.1351 111.737 14.1359 111.737C14.1363 111.738 14.1367 111.738 14.1369 111.738C14.1373 111.738 14.1376 111.738 14.647 111.036ZM1.97937 84.0618C2.89411 78.264 5.82562 72.675 9.65765 68.9161C13.4995 65.1476 18.0971 63.3419 22.4194 64.7028L22.9404 63.0481C17.7736 61.4212 12.5358 63.6628 8.4428 67.6776C4.34004 71.7021 1.23742 77.6326 0.265708 83.7914L1.97937 84.0618ZM22.4194 64.7028C23.6861 65.1017 25.4869 66.2624 26.8105 67.9353C28.1216 69.5924 28.8851 71.6434 28.3328 73.8635L30.0163 74.2824C30.7372 71.385 29.7015 68.7932 28.171 66.8589C26.6531 64.9404 24.5699 63.5611 22.9404 63.0481L22.4194 64.7028ZM28.3328 73.8635C27.8104 75.9628 26.5238 77.1706 24.995 77.89C23.432 78.6255 21.6223 78.8425 20.1601 78.8918L20.2185 80.6257C21.7684 80.5735 23.8552 80.3437 25.7337 79.4598C27.6464 78.5597 29.3463 76.9753 30.0163 74.2824L28.3328 73.8635ZM20.1601 78.8918C14.3316 79.088 10.1628 75.5188 7.71232 70.2483C5.25338 64.9597 4.60632 58.0843 5.84052 52.0881L4.14128 51.7383C2.84001 58.0604 3.50742 65.3194 6.13919 70.9797C8.77938 76.6582 13.4775 80.8526 20.2185 80.6257L20.1601 78.8918ZM5.84052 52.0881C6.89907 46.9452 9.52124 41.9974 13.1076 38.6845C16.6792 35.3853 21.1569 33.7403 26.0396 35.0172L26.4785 33.3387C20.8984 31.8795 15.8322 33.8059 11.9304 37.4101C8.04351 41.0007 5.26297 46.2887 4.14128 51.7383L5.84052 52.0881ZM26.0396 35.0172C27.5709 35.4176 28.725 36.1904 29.4753 37.2624C30.227 38.3364 30.6264 39.7869 30.508 41.6337L32.2393 41.7447C32.3776 39.5874 31.9175 37.7262 30.8966 36.2676C29.8743 34.8069 28.3427 33.8262 26.4785 33.3387L26.0396 35.0172ZM30.508 41.6337C30.3997 43.3225 29.6744 44.4821 28.5629 45.2995C27.4165 46.1426 25.8143 46.6509 23.9498 46.8846L24.1656 48.606C26.1811 48.3533 28.1118 47.7848 29.5908 46.6971C31.1047 45.5837 32.0974 43.9584 32.2393 41.7447L30.508 41.6337ZM23.9498 46.8846C17.7054 47.6675 12.8894 43.1443 10.1535 36.6801C7.42422 30.2313 6.96578 22.2443 9.19824 16.8508L7.59527 16.1873C5.14269 22.1126 5.69388 30.594 8.55588 37.3562C11.4113 44.103 16.7683 49.5335 24.1656 48.606L23.9498 46.8846ZM9.19824 16.8508C10.9312 12.664 15.3651 8.8727 19.5174 6.0817C21.5716 4.70097 23.5149 3.5924 24.9449 2.82903C25.6594 2.44763 26.2444 2.15312 26.6494 1.95461C26.8519 1.85537 27.0093 1.78018 27.1152 1.73016C27.1682 1.70514 27.2083 1.68643 27.2348 1.67416C27.248 1.66802 27.2578 1.6635 27.2641 1.6606C27.2673 1.65915 27.2695 1.65811 27.2709 1.65748C27.2716 1.65716 27.2721 1.65695 27.2723 1.65684C27.2724 1.65678 27.2724 1.65677 27.2725 1.65674C27.2725 1.65676 27.2724 1.65681 26.9124 0.867584C26.5525 0.0783613 26.5523 0.0784595 26.552 0.0785801C26.5518 0.0786526 26.5515 0.0788028 26.5512 0.0789548C26.5505 0.0792518 26.5496 0.0796595 26.5485 0.0801633C26.5463 0.081178 26.5432 0.0826123 26.5392 0.0844476C26.5312 0.0881252 26.5197 0.0934353 26.5047 0.100378C26.4748 0.114255 26.4311 0.134627 26.3745 0.161356C26.2613 0.214798 26.0963 0.29367 25.8859 0.396829C25.465 0.603113 24.862 0.906719 24.128 1.29857C22.6609 2.08171 20.6647 3.22024 18.5497 4.64186C14.3635 7.45557 9.53955 11.49 7.59527 16.1873L9.19824 16.8508ZM26.1692 0.42028L22.0442 7.27404L23.5307 8.16864L27.6556 1.31489L26.1692 0.42028ZM26.8915 0.000405964L18.4939 0.203236L18.5358 1.93758L26.9334 1.73476L26.8915 0.000405964Z" fill="#6C5FBC"/>
  </symbol>

  <symbol id="icon-lines-quality" viewBox="0 0 31 35" width="31" height="35" fill="none">
    <path d="M16.1331 4.65415C10.8506 7.08253 5.89825 10.0645 0.744257 12.72" stroke="#6C5FBC" stroke-width="1.48824" stroke-miterlimit="1.5" stroke-linecap="round" stroke-linejoin="round"/>
    <path d="M30.2078 12.7491C20.7599 13.6973 11.2694 15.6903 2.08732 18.048" stroke="#6C5FBC" stroke-width="1.48824" stroke-miterlimit="1.5" stroke-linecap="round" stroke-linejoin="round"/>
    <path d="M23.7347 27.9781C17.711 25.4945 8.21484 24.6409 1.54572 23.6331" stroke="#6C5FBC" stroke-width="1.48824" stroke-miterlimit="1.5" stroke-linecap="round" stroke-linejoin="round"/>
  </symbol>
  
  <symbol id="icon-blue-star" viewBox="0 0 21 21" width="21" height="21" fill="none">
    <path d="M12.6927 16.8287C14.0482 17.5706 15.2403 16.6714 14.981 15.0977L14.5156 12.2722L16.4873 10.2711C17.584 9.1582 17.1309 7.69995 15.6133 7.47035L12.8884 7.05811L11.6758 4.50004C10.9965 3.06714 9.52172 3.05173 8.84121 4.48733L7.62258 7.05811L4.89766 7.47035C3.38217 7.69962 2.92543 9.15663 4.02359 10.2711L5.99537 12.2722L5.5299 15.0977C5.27102 16.6692 6.46082 17.5717 7.81822 16.8287L10.2555 15.4947L12.6927 16.8287Z" fill="#6C5FBC"/>
    <mask id="mask0_1_5425" style="mask-type:luminance" maskUnits="userSpaceOnUse" x="3" y="3" width="15" height="15">
    <path d="M12.6927 16.8287C14.0482 17.5706 15.2403 16.6714 14.981 15.0977L14.5156 12.2722L16.4873 10.2711C17.584 9.1582 17.1309 7.69995 15.6133 7.47035L12.8884 7.05811L11.6758 4.50004C10.9965 3.06714 9.52172 3.05173 8.84121 4.48733L7.62258 7.05811L4.89766 7.47035C3.38217 7.69962 2.92543 9.15663 4.02359 10.2711L5.99537 12.2722L5.5299 15.0977C5.27102 16.6692 6.46082 17.5717 7.81822 16.8287L10.2555 15.4947L12.6927 16.8287Z" fill="white"/>
    </mask>
    <g mask="url(#mask0_1_5425)">
    </g>
  </symbol>

  <symbol id="icon-bookmark" viewBox="0 0 32 32" width="32" height="32" fill="none">
    <circle cx="15.9433" cy="15.9433" r="15.9433" fill="#DBD9EE"/>
    <path d="M19.4373 8.49041C17.1292 8.10346 14.7604 8.10346 12.4522 8.49041C11.609 8.63177 10.9375 9.27912 10.7684 10.1185C9.99386 13.9638 9.95159 17.9207 10.6438 21.7816L10.9257 23.3536C11.0126 23.8383 11.6035 24.032 11.9605 23.6929L15.3625 20.461C15.6888 20.151 16.2008 20.151 16.5271 20.461L19.9291 23.6929C20.2861 24.032 20.877 23.8383 20.9639 23.3536L21.2457 21.7816C21.938 17.9207 21.8957 13.9638 21.1211 10.1185C20.9521 9.27912 20.2805 8.63177 19.4373 8.49041Z" fill="#6C5FBC"/>
  </symbol>

  <symbol id="icon-viewall" viewBox="0 0 114 46" width="114" height="46" fill="none">
    <path d="M97 21.9019H112.804" stroke="#ACADB9" stroke-width="2.25773" stroke-linecap="round" stroke-linejoin="round"/>
    <path d="M104.902 14L112.804 21.9021L104.902 29.8041" stroke="#ACADB9" stroke-width="2.25773" stroke-linecap="round" stroke-linejoin="round"/>
    <path d="M13.48 16.1L8.26 30H5.62L0.38 16.1H2.82L6.94 27.66L11.08 16.1H13.48ZM16.4467 17.52C16.0334 17.52 15.6867 17.38 15.4067 17.1C15.1267 16.82 14.9867 16.4733 14.9867 16.06C14.9867 15.6467 15.1267 15.3 15.4067 15.02C15.6867 14.74 16.0334 14.6 16.4467 14.6C16.8467 14.6 17.1867 14.74 17.4667 15.02C17.7467 15.3 17.8867 15.6467 17.8867 16.06C17.8867 16.4733 17.7467 16.82 17.4667 17.1C17.1867 17.38 16.8467 17.52 16.4467 17.52ZM17.5667 18.98V30H15.2867V18.98H17.5667ZM30.5602 24.22C30.5602 24.6333 30.5335 25.0067 30.4802 25.34H22.0602C22.1268 26.22 22.4535 26.9267 23.0402 27.46C23.6268 27.9933 24.3468 28.26 25.2002 28.26C26.4268 28.26 27.2935 27.7467 27.8002 26.72H30.2602C29.9268 27.7333 29.3202 28.5667 28.4402 29.22C27.5735 29.86 26.4935 30.18 25.2002 30.18C24.1468 30.18 23.2002 29.9467 22.3602 29.48C21.5335 29 20.8802 28.3333 20.4002 27.48C19.9335 26.6133 19.7002 25.6133 19.7002 24.48C19.7002 23.3467 19.9268 22.3533 20.3802 21.5C20.8468 20.6333 21.4935 19.9667 22.3202 19.5C23.1602 19.0333 24.1202 18.8 25.2002 18.8C26.2402 18.8 27.1668 19.0267 27.9802 19.48C28.7935 19.9333 29.4268 20.5733 29.8802 21.4C30.3335 22.2133 30.5602 23.1533 30.5602 24.22ZM28.1802 23.5C28.1668 22.66 27.8668 21.9867 27.2802 21.48C26.6935 20.9733 25.9668 20.72 25.1002 20.72C24.3135 20.72 23.6402 20.9733 23.0802 21.48C22.5202 21.9733 22.1868 22.6467 22.0802 23.5H28.1802ZM47.5039 18.98L44.0839 30H41.6839L39.4639 21.86L37.2439 30H34.8439L31.4039 18.98H33.7239L36.0239 27.84L38.3639 18.98H40.7439L42.9839 27.8L45.2639 18.98H47.5039ZM62.5831 27.16H56.7631L55.7631 30H53.3831L58.3631 16.08H61.0031L65.9831 30H63.5831L62.5831 27.16ZM61.9431 25.3L59.6831 18.84L57.4031 25.3H61.9431ZM70.3284 15.2V30H68.0484V15.2H70.3284ZM75.5019 15.2V30H73.2219V15.2H75.5019Z" fill="#ACADB9"/>
  </symbol>

  <symbol id="icon-heart" viewBox="0 0 15 12" width="15" height="12">
    <path fill-rule="evenodd" clip-rule="evenodd" d="M0 3.92179C0 1.70606 1.94387 0 4.22554 0C5.4017 0 6.43665 0.551486 7.17932 1.26507C7.922 0.551486 8.95695 0 10.1331 0C12.4148 0 14.3586 1.70605 14.3586 3.92179C14.3586 5.4396 13.7114 6.77436 12.8146 7.90262C11.9194 9.02893 10.7484 9.98484 9.62724 10.7616C9.199 11.0583 8.76577 11.3319 8.36926 11.5339C7.99695 11.7235 7.56885 11.8972 7.17932 11.8972C6.7898 11.8972 6.3617 11.7235 5.98939 11.5339C5.59288 11.3319 5.15965 11.0583 4.73141 10.7616C3.61022 9.98484 2.43922 9.02893 1.54402 7.90262C0.647272 6.77436 0 5.4396 0 3.92179ZM4.22554 1.23074C2.51953 1.23074 1.23074 2.48536 1.23074 3.92179C1.23074 5.07336 1.71958 6.1455 2.5075 7.13684C3.29698 8.13012 4.35922 9.0065 5.43228 9.7499C5.83832 10.0312 6.22077 10.2705 6.54791 10.4372C6.89925 10.6161 7.10274 10.6664 7.17932 10.6664C7.25591 10.6664 7.4594 10.6161 7.81073 10.4372C8.13787 10.2705 8.52033 10.0312 8.92637 9.7499C9.99943 9.0065 11.0617 8.13012 11.8511 7.13684C12.6391 6.1455 13.1279 5.07336 13.1279 3.92179C13.1279 2.48536 11.8391 1.23074 10.1331 1.23074C9.15331 1.23074 8.23841 1.8161 7.66716 2.55906C7.55068 2.71055 7.37042 2.79933 7.17932 2.79933C6.98822 2.79933 6.80797 2.71055 6.69149 2.55906C6.12023 1.8161 5.20534 1.23074 4.22554 1.23074Z"/>
  </symbol>

  <symbol id="icon-plus" viewBox="0 0 29 26" width="29" height="26" fill="none">
    <rect width="28.6688" height="25.9811" rx="5.84127" fill="#323142"/>
    <mask id="path-2-inside-1_1_5351" fill="#f9f9f9ff">
    <path d="M18.8886 13.7851H14.7419V17.9902H13.0872V13.7851H8.95996V12.2861H13.0872V8.06152H14.7419V12.2861H18.8886V13.7851Z"/>
    </mask>
    <path d="M18.8886 13.7851H14.7419V17.9902H13.0872V13.7851H8.95996V12.2861H13.0872V8.06152H14.7419V12.2861H18.8886V13.7851Z" fill="black"/>
    <path d="M18.8886 13.7851V16.4728H21.5763V13.7851H18.8886ZM14.7419 13.7851V11.0974H12.0542V13.7851H14.7419ZM14.7419 17.9902V20.6779H17.4296V17.9902H14.7419ZM13.0872 17.9902H10.3995V20.6779H13.0872V17.9902ZM13.0872 13.7851H15.7749V11.0974H13.0872V13.7851ZM8.95996 13.7851H6.27226V16.4728H8.95996V13.7851ZM8.95996 12.2861V9.59836H6.27226V12.2861H8.95996ZM13.0872 12.2861V14.9738H15.7749V12.2861H13.0872ZM13.0872 8.06152V5.37382H10.3995V8.06152H13.0872ZM14.7419 8.06152H17.4296V5.37382H14.7419V8.06152ZM14.7419 12.2861H12.0542V14.9738H14.7419V12.2861ZM18.8886 12.2861H21.5763V9.59836H18.8886V12.2861ZM18.8886 11.0974H14.7419V16.4728H18.8886V11.0974ZM12.0542 13.7851V17.9902H17.4296V13.7851H12.0542ZM14.7419 15.3025H13.0872V20.6779H14.7419V15.3025ZM15.7749 17.9902V13.7851H10.3995V17.9902H15.7749ZM13.0872 11.0974H8.95996V16.4728H13.0872V11.0974ZM11.6477 13.7851V12.2861H6.27226V13.7851H11.6477ZM8.95996 14.9738H13.0872V9.59836H8.95996V14.9738ZM15.7749 12.2861V8.06152H10.3995V12.2861H15.7749ZM13.0872 10.7492H14.7419V5.37382H13.0872V10.7492ZM12.0542 8.06152V12.2861H17.4296V8.06152H12.0542ZM14.7419 14.9738H18.8886V9.59836H14.7419V14.9738ZM16.2009 12.2861V13.7851H21.5763V12.2861H16.2009Z" fill="#f9f9f9ff" mask="url(#path-2-inside-1_1_5351)"/>
  </symbol>

  <symbol id="icon-arrow-purchases" viewBox="0 0 38 111" width="38" height="111" fill="none">
    <path d="M4.74456 0.0510135C4.29348 -0.110323 3.79701 0.124563 3.63568 0.575647C3.47434 1.02673 3.70923 1.5232 4.16031 1.68453L4.45244 0.867773L4.74456 0.0510135ZM25.037 23.0968L24.1767 23.2074L25.037 23.0968ZM9.968 48.389L9.98602 47.5217L9.968 48.389ZM0.874175 40.4221L1.7409 40.387L1.7409 40.387L0.874175 40.4221ZM7.90425 32.4446L8.1754 33.2686L7.90425 32.4446ZM30.3019 54.9104L31.1665 54.84L31.1665 54.84L30.3019 54.9104ZM14.861 77.8985L14.8363 77.0314L14.861 77.8985ZM7.84513 72.123L8.69161 71.9335L7.84513 72.123ZM36.9588 89.8393L36.0965 89.7457L36.0965 89.7457L36.9588 89.8393ZM23.5756 110.055L22.7368 109.834C22.6562 110.14 22.7486 110.466 22.978 110.684C23.2074 110.902 23.5373 110.978 23.8389 110.882L23.5756 110.055ZM26.4517 102.541C26.5737 102.077 26.2971 101.603 25.8338 101.481C25.3706 101.359 24.8961 101.636 24.7741 102.099L25.6129 102.32L26.4517 102.541ZM31.8426 108.332C32.2991 108.187 32.5512 107.699 32.4058 107.242C32.2604 106.786 31.7725 106.534 31.316 106.679L31.5793 107.506L31.8426 108.332ZM4.45244 0.867773C4.16031 1.68453 4.1601 1.68446 4.15995 1.68441C4.16 1.68442 4.15993 1.6844 4.16002 1.68443C4.16021 1.6845 4.16067 1.68466 4.16142 1.68493C4.16291 1.68547 4.16551 1.68641 4.16921 1.68776C4.1766 1.69045 4.18838 1.69476 4.20441 1.7007C4.23647 1.71258 4.28552 1.73097 4.35049 1.75593C4.48046 1.80587 4.67406 1.88209 4.92276 1.98515C5.42028 2.19131 6.13755 2.50453 7.00642 2.92911C8.74589 3.7791 11.0837 5.07088 13.4793 6.83699C18.2873 10.3816 23.219 15.7529 24.1767 23.2074L25.037 23.0968L25.8974 22.9863C24.8531 14.8581 19.4925 9.11481 14.5087 5.44059C12.0084 3.59727 9.57543 2.25355 7.76809 1.37039C6.86355 0.928386 6.11342 0.600623 5.58688 0.382439C5.32355 0.273322 5.11596 0.191536 4.97274 0.136505C4.90112 0.108988 4.84558 0.0881534 4.8072 0.0739304C4.78801 0.0668187 4.7731 0.0613591 4.76262 0.0575428C4.75738 0.0556346 4.75324 0.0541372 4.75022 0.0530494C4.74872 0.0525055 4.74749 0.0520639 4.74655 0.0517247C4.74607 0.0515552 4.74558 0.0513771 4.74534 0.0512925C4.74492 0.0511403 4.74456 0.0510135 4.45244 0.867773ZM25.037 23.0968L24.1767 23.2074C24.9246 29.0289 23.6781 35.2158 21.054 39.8985C18.4232 44.5932 14.5165 47.6159 9.98602 47.5217L9.968 48.389L9.94997 49.2562C15.3657 49.3687 19.7647 45.7482 22.5675 40.7466C25.3769 35.7331 26.6919 29.1705 25.8974 22.9863L25.037 23.0968ZM9.968 48.389L9.98602 47.5217C8.65825 47.4941 6.60426 46.885 4.86458 45.6504C3.1414 44.4275 1.83332 42.673 1.7409 40.387L0.874175 40.4221L0.00745393 40.4571C0.128071 43.4404 1.84902 45.6377 3.86055 47.0652C5.85558 48.481 8.24197 49.2207 9.94997 49.2562L9.968 48.389ZM0.874175 40.4221L1.7409 40.387C1.6535 38.2255 2.54978 36.7053 3.81547 35.586C5.1095 34.4417 6.78568 33.7259 8.1754 33.2686L7.90425 32.4446L7.63311 31.6207C6.16001 32.1054 4.2214 32.9112 2.66621 34.2864C1.0827 35.6868 -0.104654 37.6843 0.00745394 40.4571L0.874175 40.4221ZM7.90425 32.4446L8.1754 33.2686C13.715 31.4457 18.7174 33.7025 22.5477 38.0743C26.3911 42.4611 28.9404 48.8791 29.4373 54.9808L30.3019 54.9104L31.1665 54.84C30.6425 48.4066 27.9661 41.6261 23.8526 36.931C19.7258 32.2208 14.0399 29.5123 7.63311 31.6207L7.90425 32.4446ZM30.3019 54.9104L29.4373 54.9808C29.8636 60.2142 28.7342 65.6987 26.2208 69.8845C23.7178 74.053 19.8811 76.8877 14.8363 77.0314L14.861 77.8985L14.8857 78.7655C20.6511 78.6013 24.9737 75.3314 27.7081 70.7776C30.4321 66.241 31.6181 60.3855 31.1665 54.84L30.3019 54.9104ZM14.861 77.8985L14.8363 77.0314C13.2541 77.0764 11.9296 76.6583 10.9088 75.8398C9.88603 75.0197 9.09589 73.7394 8.69161 71.9335L7.84513 72.123L6.99865 72.3124C7.4709 74.422 8.43454 76.0795 9.82351 77.1932C11.2144 78.3086 12.9596 78.8204 14.8857 78.7655L14.861 77.8985ZM7.84513 72.123L8.69161 71.9335C8.32193 70.2821 8.69293 68.9657 9.53058 67.8693C10.3946 66.7386 11.79 65.8013 13.5141 65.0541L13.1691 64.2582L12.8242 63.4623C10.9604 64.2701 9.26666 65.3573 8.15205 66.8161C7.01112 68.3093 6.51408 70.1478 6.99865 72.3124L7.84513 72.123ZM13.1691 64.2582L13.5141 65.0541C19.2883 62.5514 25.1796 65.5425 29.6185 70.98C34.0468 76.4046 36.7268 83.9425 36.0965 89.7457L36.9588 89.8393L37.8212 89.933C38.5136 83.5576 35.606 75.5712 30.9624 69.8829C26.3294 64.2077 19.6645 60.4975 12.8242 63.4623L13.1691 64.2582ZM36.9588 89.8393L36.0965 89.7457C35.6072 94.2504 32.4145 99.133 29.2115 102.977C27.627 104.878 26.0726 106.487 24.914 107.621C24.3352 108.187 23.8562 108.634 23.5232 108.938C23.3567 109.09 23.2267 109.206 23.139 109.284C23.0952 109.323 23.0619 109.352 23.04 109.372C23.029 109.381 23.0208 109.388 23.0156 109.393C23.013 109.395 23.0111 109.397 23.01 109.398C23.0094 109.398 23.009 109.398 23.0088 109.399C23.0087 109.399 23.0087 109.399 23.0086 109.399C23.0087 109.399 23.0087 109.399 23.5756 110.055C24.1424 110.712 24.1426 110.712 24.1428 110.712C24.1429 110.711 24.1432 110.711 24.1435 110.711C24.144 110.711 24.1448 110.71 24.1457 110.709C24.1475 110.707 24.1501 110.705 24.1534 110.702C24.1601 110.697 24.1697 110.688 24.1821 110.677C24.2069 110.656 24.2431 110.624 24.2899 110.582C24.3836 110.499 24.5199 110.377 24.693 110.219C25.0391 109.903 25.5327 109.443 26.1274 108.861C27.316 107.698 28.9128 106.045 30.5443 104.087C33.7733 100.212 37.2723 94.9871 37.8212 89.933L36.9588 89.8393ZM23.5756 110.055L24.4144 110.276L26.4517 102.541L25.6129 102.32L24.7741 102.099L22.7368 109.834L23.5756 110.055ZM23.5756 110.055L23.8389 110.882L31.8426 108.332L31.5793 107.506L31.316 106.679L23.3123 109.229L23.5756 110.055Z" fill="#6C5FBC"/>
  </symbol>

  <symbol id="icon-expense" viewBox="0 0 30 30" width="30" height="30" fill="none">
    <rect width="29.7717" height="29.7717" rx="14.8858" fill="#F4F0FF"/>
    <path d="M15.2954 8.53817L15.2768 8.58158L13.4781 12.7558H11.7104C11.2886 12.7558 10.8855 12.8427 10.5195 12.9977L11.605 10.4051L11.6298 10.3431L11.6732 10.2438C11.6856 10.2066 11.698 10.1694 11.7166 10.1384C12.5291 8.25906 13.4471 7.83109 15.2954 8.53817Z" stroke="#936DFF" stroke-width="0.930365" stroke-linecap="round" stroke-linejoin="round"/>
    <path d="M18.638 12.8798C18.3589 12.793 18.0611 12.7557 17.7634 12.7557H13.4775L15.2762 8.5815L15.2949 8.53809C15.3879 8.5691 15.4747 8.61252 15.5678 8.64973L16.9385 9.22656C17.7014 9.54288 18.2348 9.87161 18.5573 10.2686C18.6194 10.343 18.669 10.4112 18.7124 10.4919C18.7682 10.5787 18.8116 10.6655 18.8364 10.7586C18.8613 10.8144 18.8799 10.8702 18.8923 10.9198C19.0597 11.4408 18.9605 12.0797 18.638 12.8798Z" stroke="#936DFF" stroke-width="0.930365" stroke-linecap="round" stroke-linejoin="round"/>
    <path d="M20.7914 15.7826V16.9921C20.7914 17.1162 20.7852 17.2402 20.779 17.3643C20.6611 19.5289 19.4517 20.6205 17.1568 20.6205H12.3189C12.17 20.6205 12.0211 20.6081 11.8785 20.5895C9.90611 20.4593 8.85169 19.4049 8.72144 17.4325C8.70283 17.2898 8.69043 17.141 8.69043 16.9921V15.7826C8.69043 14.536 9.44713 13.4629 10.5264 12.9978C10.8985 12.8427 11.2955 12.7559 11.7172 12.7559H17.7708C18.0747 12.7559 18.3724 12.7993 18.6453 12.8799C19.8796 13.2583 20.7914 14.4119 20.7914 15.7826Z" stroke="#936DFF" stroke-width="0.930365" stroke-linecap="round" stroke-linejoin="round"/>
    <path d="M11.6049 10.4053L10.5195 12.9979C9.44029 13.4631 8.68359 14.5361 8.68359 15.7828V13.9655C8.68359 12.204 9.93649 10.734 11.6049 10.4053Z" stroke="#936DFF" stroke-width="0.930365" stroke-linecap="round" stroke-linejoin="round"/>
    <path d="M20.7906 13.9654V15.7828C20.7906 14.4182 19.885 13.2584 18.6445 12.8862C18.9671 12.0799 19.0601 11.4473 18.905 10.9201C18.8926 10.8642 18.874 10.8084 18.8492 10.7588C20.0029 11.3542 20.7906 12.5761 20.7906 13.9654Z" stroke="#936DFF" stroke-width="0.930365" stroke-linecap="round" stroke-linejoin="round"/>
  </symbol>

  <symbol id="line-expense" viewBox="0 0 242 6" width="242" height="6" fill="none">
    <rect opacity="0.2" width="241.895" height="5.58219" rx="2.7911" fill="#6C5FBC"/>
    <rect width="175.839" height="5.58219" rx="2.7911" fill="#6C5FBC"/>
  </symbol>

  <symbol id="icon-vocher" viewBox="0 0 30 30" width="30" height="30" fill="none">
    <rect width="29.7717" height="29.7717" rx="14.8858" fill="#F2FDF6"/>
    <path d="M17.9872 20.6232H11.7848C9.92408 20.6232 8.68359 19.6929 8.68359 17.522V13.1803C8.68359 11.0095 9.92408 10.0791 11.7848 10.0791H17.9872C19.848 10.0791 21.0885 11.0095 21.0885 13.1803V17.522C21.0885 19.6929 19.848 20.6232 17.9872 20.6232Z" stroke="#22C55E" stroke-width="0.930365" stroke-miterlimit="10" stroke-linecap="round" stroke-linejoin="round"/>
    <path d="M14.8861 17.2117C15.9138 17.2117 16.7469 16.3786 16.7469 15.351C16.7469 14.3233 15.9138 13.4902 14.8861 13.4902C13.8585 13.4902 13.0254 14.3233 13.0254 15.351C13.0254 16.3786 13.8585 17.2117 14.8861 17.2117Z" stroke="#22C55E" stroke-width="0.930365" stroke-miterlimit="10" stroke-linecap="round" stroke-linejoin="round"/>
    <path d="M10.8555 13.7998V16.901" stroke="#22C55E" stroke-width="0.930365" stroke-miterlimit="10" stroke-linecap="round" stroke-linejoin="round"/>
    <path d="M18.918 13.7998V16.901" stroke="#22C55E" stroke-width="0.930365" stroke-miterlimit="10" stroke-linecap="round" stroke-linejoin="round"/>
  </symbol>

  <symbol id="line-vocher" viewBox="0 0 242 6" width="242" height="6" fill="none">
    <rect opacity="0.2" width="241.895" height="5.58219" rx="2.7911" fill="#FBAD18"/>
    <rect width="145.137" height="5.58219" rx="2.7911" fill="#FBAD18"/>
  </symbol>

  <symbol id="icon-quotes" viewBox="0 0 35 27" width="35" height="27" fill="none">
    <path fill-rule="evenodd" clip-rule="evenodd" d="M21.9245 26.3656C20.0743 22.7885 19.1492 18.9031 19.1492 14.7092C19.1492 10.4537 20.2748 6.93832 22.5259 4.16299C24.777 1.38767 28.2769 0 33.0258 0V5.82819C31.3606 5.82819 30.1426 6.19824 29.3717 6.93832C28.6007 7.67841 28.2153 9.09691 28.2153 11.1938V12.1189H34.9686V26.3656H21.9245ZM2.77532 26.3659C0.925107 22.7888 0 18.9033 0 14.7095C0 10.454 1.12555 6.93856 3.37664 4.16323C5.62774 1.3879 9.12773 0.000233171 13.8766 0.000233171V5.82843C12.2114 5.82843 10.9934 6.19847 10.2224 6.93856C9.45152 7.67865 9.06605 9.09715 9.06605 11.1941V12.1192H15.8193V26.3659H2.77532Z" fill="#DADADA"/>
  </symbol>

  <symbol id="icon-star-rating" viewBox="0 0 14 14" width="14" height="14" fill="none">
    <path fill-rule="evenodd" clip-rule="evenodd" d="M7.12051 0.175698L9.07587 4.3312L13.4469 4.99772C13.5601 5.01531 13.6539 5.09839 13.6892 5.21217C13.7244 5.32594 13.695 5.45077 13.6132 5.53437L10.4509 8.76825L11.1975 13.3355C11.2171 13.4533 11.171 13.5725 11.0785 13.6429C10.9861 13.7133 10.8634 13.7226 10.7622 13.6669L6.85236 11.511L2.94253 13.6675C2.84139 13.7234 2.71864 13.7142 2.62614 13.6439C2.53363 13.5735 2.48751 13.4542 2.50725 13.3364L3.25388 8.76825L0.0906758 5.53437C0.0088645 5.45077 -0.0205854 5.32594 0.0146615 5.21217C0.0499085 5.09839 0.143768 5.01531 0.256925 4.99772L4.62796 4.3312L6.58422 0.175698C6.634 0.068247 6.73816 0 6.85236 0C6.96657 0 7.07073 0.068247 7.12051 0.175698Z" fill="#F59E0B"/>
  </symbol>

  <symbol id="icon-logo-foot" viewBox="0 0 100 38" width="100" height="38" fill="none">
    <rect x="3.25098" y="4.40625" width="37.4025" height="33.0393" rx="6.16733" fill="#6C5FBC"/>
    <rect x="0.891536" y="0.891536" width="35.6194" height="31.2562" rx="5.2758" fill="#DBD9EE" stroke="#6C5FBC" stroke-width="1.78307"/>
    <path d="M28.8691 10.6641L8.60349 10.5745" stroke="#6C5FBC" stroke-width="1.84442" stroke-linecap="round" stroke-linejoin="round"/>
    <path d="M28.859 14.722L24.3502 14.6993C22.4852 14.6899 20.9762 12.8653 20.9822 10.6269C20.9882 8.38861 22.507 6.57923 24.372 6.58862L28.8809 6.61133" stroke="#6C5FBC" stroke-width="1.84442" stroke-linecap="round" stroke-linejoin="round"/>
    <path d="M15.364 23.6457L9.47436 23.5765C8.99178 23.5741 8.58725 23.0983 8.57784 22.5192L8.53808 20.9924C8.52874 20.387 8.93593 19.8758 9.44044 19.8783L15.2642 19.9471L15.364 23.6457Z" stroke="#6C5FBC" stroke-width="1.84442" stroke-linecap="round" stroke-linejoin="round"/>
    <path d="M24.6134 25.8454L16.2888 25.7377C15.8062 25.7353 15.4017 25.2596 15.3923 24.6807L15.2844 19.9309L28.8078 20.1042L28.8171 20.7094C28.8862 23.5778 26.9934 25.8837 24.6134 25.8454Z" stroke="#6C5FBC" stroke-width="1.84442" stroke-linecap="round" stroke-linejoin="round"/>
    <path d="M61.331 19.5719C61.331 19.9466 61.306 20.2839 61.256 20.5838H53.6669C53.7294 21.3333 53.9917 21.9204 54.4539 22.3452C54.9162 22.7699 55.4846 22.9823 56.1592 22.9823C57.1336 22.9823 57.8269 22.5638 58.2391 21.7268H61.0686C60.7688 22.7262 60.1942 23.5507 59.3447 24.2003C58.4952 24.8374 57.4521 25.156 56.2154 25.156C55.216 25.156 54.3165 24.9373 53.517 24.5001C52.73 24.0504 52.1116 23.4195 51.6619 22.6075C51.2247 21.7955 51.0061 20.8586 51.0061 19.7967C51.0061 18.7224 51.2247 17.7792 51.6619 16.9672C52.0991 16.1552 52.7113 15.5306 53.4983 15.0934C54.2853 14.6561 55.191 14.4375 56.2154 14.4375C57.2023 14.4375 58.083 14.6499 58.8575 15.0746C59.6445 15.4994 60.2504 16.1053 60.6751 16.8923C61.1124 17.6668 61.331 18.56 61.331 19.5719ZM58.6139 18.8223C58.6014 18.1478 58.3578 17.6106 57.8831 17.2108C57.4084 16.7986 56.8275 16.5925 56.1404 16.5925C55.4908 16.5925 54.9411 16.7923 54.4914 17.1921C54.0542 17.5794 53.7856 18.1228 53.6857 18.8223H58.6139ZM62.5712 19.7593C62.5712 18.7099 62.7774 17.7792 63.1896 16.9672C63.6143 16.1552 64.1827 15.5306 64.8948 15.0934C65.6194 14.6561 66.4251 14.4375 67.3121 14.4375C68.0866 14.4375 68.7612 14.5937 69.3358 14.906C69.923 15.2183 70.3914 15.6118 70.7412 16.0865V14.6062H73.3833V24.9873H70.7412V23.4695C70.4039 23.9567 69.9355 24.3627 69.3358 24.6875C68.7487 24.9998 68.0679 25.156 67.2933 25.156C66.4189 25.156 65.6194 24.9311 64.8948 24.4814C64.1827 24.0316 63.6143 23.4008 63.1896 22.5888C62.7774 21.7643 62.5712 20.8211 62.5712 19.7593ZM70.7412 19.7967C70.7412 19.1596 70.6163 18.6162 70.3664 18.1665C70.1166 17.7043 69.7793 17.3545 69.3546 17.1171C68.9298 16.8673 68.4739 16.7424 67.9867 16.7424C67.4995 16.7424 67.0497 16.861 66.6375 17.0984C66.2252 17.3358 65.8879 17.6855 65.6256 18.1478C65.3758 18.5975 65.2508 19.1346 65.2508 19.7593C65.2508 20.3839 65.3758 20.9335 65.6256 21.4083C65.8879 21.8705 66.2252 22.2265 66.6375 22.4763C67.0622 22.7262 67.5119 22.8511 67.9867 22.8511C68.4739 22.8511 68.9298 22.7324 69.3546 22.4951C69.7793 22.2452 70.1166 21.8955 70.3664 21.4457C70.6163 20.9835 70.7412 20.4339 70.7412 19.7967ZM78.9999 16.7611V21.783C78.9999 22.1328 79.0811 22.3889 79.2435 22.5513C79.4184 22.7012 79.7057 22.7762 80.1055 22.7762H81.3235V24.9873H79.6745C77.4634 24.9873 76.3578 23.913 76.3578 21.7643V16.7611H75.121V14.6062H76.3578V12.039H78.9999V14.6062H81.3235V16.7611H78.9999ZM85.8338 11.1208V24.9873H83.2104V11.1208H85.8338ZM98.3571 14.6062L91.9298 29.8968H89.1377L91.3864 24.725L87.2264 14.6062H90.1683L92.848 21.858L95.565 14.6062H98.3571Z" fill="#6C5FBC"/>
  </symbol>

  <symbol id="icon-instagram" viewBox="0 0 16 16" width="16" height="16" fill="none">
    <path fill-rule="evenodd" clip-rule="evenodd" d="M7.93271 0C8.99321 0.0378781 10.0916 0.0378781 11.1521 0.0757512C12.099 0.113624 12.9701 0.265125 13.8033 0.757496C14.8638 1.40137 15.5077 2.34824 15.735 3.56023C15.8486 4.27985 15.8865 5.03735 15.9243 5.75698C15.9622 7.34771 15.9243 8.93846 15.9243 10.5292C15.9243 11.3624 15.8865 12.1957 15.6213 12.9911C15.0911 14.5439 13.9927 15.4908 12.402 15.7938C11.6823 15.9453 10.9248 15.9453 10.2052 15.9832C8.61446 16.021 7.06159 15.9832 5.47083 15.9832C4.63758 15.9832 3.80433 15.9453 3.00896 15.6802C1.45608 15.1499 0.509209 14.0515 0.206207 12.4608C0.0547099 11.7412 0.0547099 10.9837 0.0168343 10.2641C-0.0210429 8.67333 0.0168343 7.08259 0.0168343 5.49185C0.0168343 4.65861 0.0547099 3.82536 0.319834 3.02998C0.850086 1.47711 1.94846 0.530251 3.53921 0.227251C4.25884 0.0757562 5.01634 0.0757562 5.73596 0.0378781C6.45559 0 7.17521 0 7.93271 0ZM14.485 7.84071C14.4471 7.84071 14.485 7.84071 14.485 7.84071C14.4471 7.19684 14.4471 6.59084 14.4471 5.94696C14.4471 5.34097 14.4092 4.73497 14.3335 4.12898C14.182 2.76548 13.3866 1.85648 12.061 1.59136C11.3792 1.43987 10.6217 1.43987 9.93996 1.43987C8.57646 1.40199 7.25084 1.40199 5.88734 1.43987C5.20559 1.43987 4.52384 1.47773 3.87996 1.59136C2.74371 1.78074 1.94833 2.42461 1.60746 3.56085C1.49384 3.9396 1.45596 4.31835 1.41808 4.69709C1.38021 6.13634 1.38021 7.57558 1.38021 9.01482C1.38021 9.92382 1.41808 10.8707 1.49384 11.7797C1.60746 13.1432 2.44071 14.09 3.80421 14.3173C4.48596 14.4309 5.20559 14.4688 5.92521 14.4688C7.25084 14.5067 8.57646 14.4688 9.93996 14.4688C10.546 14.4688 11.152 14.4309 11.758 14.3552C12.3261 14.3173 12.8563 14.1279 13.3108 13.7492C14.0683 13.1432 14.3335 12.3478 14.3713 11.4388C14.4471 10.3026 14.4471 9.09057 14.485 7.84071Z" fill="#081420"/>
    <path fill-rule="evenodd" clip-rule="evenodd" d="M12.0228 7.99085C12.0228 10.2633 10.2048 12.0813 7.9323 12.0813C5.6598 12.0813 3.8418 10.2633 3.8418 7.95298C3.8418 5.71837 5.69767 3.90039 7.97017 3.90039C10.2048 3.90039 12.0228 5.71837 12.0228 7.99085ZM7.93272 10.6429C9.37197 10.6429 10.584 9.43095 10.584 7.99172C10.584 6.55249 9.37197 5.34049 7.93272 5.34049C6.45559 5.34049 5.28146 6.55249 5.28146 7.99172C5.24359 9.43095 6.45559 10.6429 7.93272 10.6429Z" fill="#081420"/>
    <path d="M13.1215 3.71152C13.1215 4.24178 12.7049 4.69628 12.1747 4.69628C11.6444 4.69628 11.1899 4.24178 11.2278 3.71152C11.2278 3.18128 11.6444 2.76465 12.1747 2.76465C12.7049 2.76465 13.1215 3.18127 13.1215 3.71152Z" fill="#081420"/>
  </symbol>

  <symbol id="icon-linkedin" viewBox="0 0 16 16" width="16" height="16" fill="none">
    <path fill-rule="evenodd" clip-rule="evenodd" d="M15.9413 9.32412V15.2107H12.5038V9.71083C12.5038 8.33586 12.0312 7.39057 10.7851 7.39057C9.83978 7.39057 9.28119 8.03509 9.02338 8.63664C8.93745 8.85147 8.89448 9.15225 8.89448 9.45302V15.2107H5.45703C5.45703 15.2107 5.5 5.88669 5.45703 4.9414H8.89448V6.40231C8.89448 6.40231 8.89448 6.44527 8.85151 6.44527H8.89448V6.40231C9.36713 5.71482 10.1406 4.68359 11.9882 4.68359C14.2225 4.68359 15.9413 6.18747 15.9413 9.32412ZM1.93357 0C0.773426 0 0 0.773422 0 1.76168C0 2.74994 0.730459 3.52337 1.8906 3.52337H1.93357C3.13668 3.52337 3.86713 2.74995 3.86713 1.76168C3.82417 0.773422 3.09371 0 1.93357 0ZM0.171875 15.2107H3.56636V4.94141H0.171875V15.2107Z" fill="#081420"/>
  </symbol>

  <symbol id="icon-facebook" viewBox="0 0 8 16" width="8" height="16" fill="none">
    <path fill-rule="evenodd" clip-rule="evenodd" d="M7.111 7.97058H4.88394V15.9412H1.56286V9.27463V7.97058H0V5.15744H1.56286V3.32108C1.56286 2.03172 2.18801 0 4.88394 0H7.34543V2.735H5.58722C5.31372 2.735 4.88394 2.89129 4.88394 3.51643V5.15744H7.38451L7.111 7.97058Z" fill="#081420"/>
  </symbol>

  <symbol id="icon-twitter" viewBox="0 0 16 13" width="16" height="13" fill="none">
    <path fill-rule="evenodd" clip-rule="evenodd" d="M15.9412 1.53784C15.341 1.8004 14.7409 1.98795 14.0657 2.06296C14.7409 1.65037 15.266 1.01273 15.4911 0.262559C14.8534 0.637643 14.1408 0.9002 13.4281 1.05023C12.828 0.41259 11.9653 0 11.0275 0C9.22713 0 7.76429 1.46283 7.76429 3.26323C7.76429 3.52579 7.8018 3.78835 7.83931 4.0134C5.10118 3.86337 2.70062 2.58808 1.08775 0.600137C0.78768 1.08774 0.637646 1.65037 0.637646 2.2505C0.637646 3.37576 1.20028 4.38848 2.10049 4.98861C1.57536 4.98861 1.05024 4.83858 0.600137 4.57602V4.61353C0.600137 6.18889 1.7254 7.53918 3.22575 7.83925C2.96318 7.91426 2.66312 7.95178 2.36304 7.95178C2.13799 7.95178 1.95045 7.91426 1.76291 7.87676C2.1755 9.18955 3.37578 10.1273 4.83861 10.1648C3.71336 11.0275 2.32553 11.5526 0.78768 11.5526C0.525121 11.5526 0.262562 11.5526 0 11.5151C1.46284 12.4528 3.15073 12.9779 5.02616 12.9779C11.0651 12.9779 14.3283 7.98928 14.3283 3.67582C14.3283 3.52579 14.3283 3.37576 14.3283 3.26323C14.966 2.77563 15.5286 2.17548 15.9412 1.53784Z" fill="#6C5FBC"/>
  </symbol>

</svg>