<svg xmlns="http://www.w3.org/2000/svg">
  <symbol id="icon-logo-eatly" viewBox="0 0 112 43" width="112" height="43" fill="none">
    <rect x="3.67383" y="4.97827" width="42.2674" height="37.3367" rx="6.96951" fill="#6C5FBC"/>
    <rect x="1.0075" y="1.0075" width="40.2524" height="35.3217" rx="5.96201" fill="#DBD9EE" stroke="#6C5FBC" stroke-width="2.01499"/>
    <path d="M32.624 12.051L9.72243 11.9498" stroke="#6C5FBC" stroke-width="2.08432" stroke-linecap="round" stroke-linejoin="round"/>
    <path d="M32.6096 16.6363L27.5162 16.6138C25.4095 16.6044 23.7056 14.5424 23.7133 12.0114C23.7211 9.48047 25.4376 7.4335 27.5443 7.44281L32.6377 7.46533" stroke="#6C5FBC" stroke-width="2.08432" stroke-linecap="round" stroke-linejoin="round"/>
    <path d="M17.3611 26.7221L10.7067 26.648C10.1614 26.6456 9.70458 26.1076 9.6942 25.4525L9.64992 23.7254C9.63962 23.0405 10.0999 22.462 10.6699 22.4645L17.25 22.5383L17.3611 26.7221Z" stroke="#6C5FBC" stroke-width="2.08432" stroke-linecap="round" stroke-linejoin="round"/>
    <path d="M27.8134 29.2104L18.4076 29.0943C17.8624 29.0919 17.4055 28.5539 17.3951 27.8988L17.2752 22.5237L32.555 22.7103L32.5653 23.3952C32.6421 26.6412 30.5025 29.252 27.8134 29.2104Z" stroke="#6C5FBC" stroke-width="2.08432" stroke-linecap="round" stroke-linejoin="round"/>
    <path d="M69.3081 21.6456C69.3081 22.0691 69.2798 22.4503 69.2234 22.7891H60.6472C60.7178 23.6361 61.0142 24.2996 61.5366 24.7796C62.0589 25.2596 62.7012 25.4996 63.4635 25.4996C64.5647 25.4996 65.3482 25.0266 65.8141 24.0808H69.0116C68.6728 25.2102 68.0234 26.1419 67.0634 26.876C66.1035 27.596 64.9247 27.956 63.5271 27.956C62.3977 27.956 61.3813 27.7089 60.4778 27.2148C59.5884 26.7066 58.8896 25.9937 58.3814 25.0761C57.8873 24.1584 57.6402 23.0996 57.6402 21.8997C57.6402 20.6856 57.8873 19.6198 58.3814 18.7021C58.8755 17.7845 59.5672 17.0787 60.4566 16.5846C61.346 16.0905 62.3695 15.8434 63.5271 15.8434C64.6423 15.8434 65.6376 16.0834 66.5129 16.5634C67.4022 17.0434 68.0869 17.7281 68.5669 18.6174C69.061 19.4927 69.3081 20.5021 69.3081 21.6456ZM66.2376 20.7985C66.2235 20.0362 65.9482 19.4292 65.4117 18.9774C64.8753 18.5116 64.2188 18.2786 63.4424 18.2786C62.7083 18.2786 62.0871 18.5045 61.5789 18.9563C61.0848 19.3939 60.7813 20.008 60.6683 20.7985H66.2376ZM70.7096 21.8573C70.7096 20.6715 70.9426 19.6198 71.4084 18.7021C71.8884 17.7845 72.5308 17.0787 73.3354 16.5846C74.1542 16.0905 75.0648 15.8434 76.0671 15.8434C76.9424 15.8434 77.7047 16.0199 78.3541 16.3728C79.0176 16.7257 79.547 17.1704 79.9423 17.7069V16.034H82.9281V27.7654H79.9423V26.0501C79.5611 26.6007 79.0317 27.0595 78.3541 27.4266C77.6906 27.7795 76.9212 27.956 76.0459 27.956C75.0577 27.956 74.1542 27.7019 73.3354 27.1936C72.5308 26.6854 71.8884 25.9725 71.4084 25.0549C70.9426 24.1231 70.7096 23.0573 70.7096 21.8573ZM79.9423 21.8997C79.9423 21.1797 79.8011 20.5656 79.5188 20.0574C79.2364 19.5351 78.8553 19.1398 78.3753 18.8715C77.8953 18.5892 77.38 18.448 76.8294 18.448C76.2789 18.448 75.7707 18.5821 75.3048 18.8504C74.8389 19.1186 74.4578 19.5139 74.1613 20.0362C73.8789 20.5444 73.7378 21.1515 73.7378 21.8573C73.7378 22.5632 73.8789 23.1844 74.1613 23.7208C74.4578 24.2431 74.8389 24.6455 75.3048 24.9278C75.7848 25.2102 76.293 25.3513 76.8294 25.3513C77.38 25.3513 77.8953 25.2172 78.3753 24.949C78.8553 24.6667 79.2364 24.2714 79.5188 23.7632C79.8011 23.2408 79.9423 22.6197 79.9423 21.8997ZM89.2752 18.4692V24.1443C89.2752 24.5396 89.3669 24.829 89.5505 25.0125C89.7481 25.1819 90.0728 25.2666 90.5246 25.2666H91.901V27.7654H90.0375C87.5388 27.7654 86.2894 26.5513 86.2894 24.1231V18.4692H84.8918V16.034H86.2894V13.1329H89.2752V16.034H91.901V18.4692H89.2752ZM96.9979 12.0953V27.7654H94.0333V12.0953H96.9979ZM111.15 16.034L103.887 33.3134H100.732L103.273 27.4689L98.5717 16.034H101.896L104.924 24.229L107.995 16.034H111.15Z" fill="#6C5FBC"/>
  </symbol>

  <symbol id="icon-burger" viewBox="0 0 34 25" width="34" height="25" fill="none">
    <path d="M1 1H32.5H1Z" fill="#918F8F"/>
    <path d="M1 1H32.5" stroke="#282828" stroke-width="2" stroke-linecap="round"/>
    <path d="M1 12.1628H32.5H1Z" fill="#918F8F"/>
    <path d="M1 12.1628H32.5" stroke="#282828" stroke-width="2" stroke-linecap="round"/>
    <path d="M1 23.3257H32.5H1Z" fill="#918F8F"/>
    <path d="M1 23.3257H32.5" stroke="#282828" stroke-width="2" stroke-linecap="round"/>
  </symbol>

  <symbol id="icon-green-star" viewBox="0 0 30 28" width="30" height="28" fill="none">
    <path d="M29.4585 10.701H18.204L14.7395 0L11.2545 10.701L0 10.6805L9.10199 17.302L5.617 28.003L14.719 21.3815L23.821 28.003L20.3565 17.302L29.4585 10.701Z" fill="#00B67A"/>
  </symbol>

  <symbol id="icon-star" viewBox="0 0 16 16" width="16" height="16" fill="none">
    <path d="M6.95816 0.741543C7.27942 -0.247181 8.6782 -0.247181 8.99945 0.741543L10.1473 4.2742C10.291 4.71637 10.703 5.01575 11.1679 5.01575H14.8824C15.922 5.01575 16.3542 6.34607 15.5132 6.95713L12.5081 9.14044C12.132 9.41371 11.9746 9.89811 12.1183 10.3403L13.2661 13.8729C13.5874 14.8617 12.4557 15.6838 11.6147 15.0728L8.6096 12.8895C8.23347 12.6162 7.72415 12.6162 7.34801 12.8895L4.34295 15.0728C3.5019 15.6838 2.37026 14.8617 2.69151 13.8729L3.83935 10.3403C3.98302 9.89811 3.82563 9.41371 3.44949 9.14044L0.444434 6.95713C-0.396625 6.34607 0.0356224 5.01575 1.07523 5.01575H4.78969C5.25461 5.01575 5.66666 4.71637 5.81033 4.2742L6.95816 0.741543Z" fill="#F59E0B"/>
  </symbol>

  <symbol id="icon-lines-head" viewBox="0 0 42 27" width="42" height="27" fill="none">
    <path d="M3.03562 12.2091C6.63998 8.52891 11.0587 7.91522 15.5406 7.50262C21.1348 6.98761 26.8271 6.78583 31.1569 1.32517" stroke="#685BB8" stroke-width="2.65" stroke-miterlimit="1.5" stroke-linecap="round" stroke-linejoin="round"/>
    <path d="M1.63661 22.5537C4.92103 17.8805 9.69807 15.1189 15.3404 14.4964C18.2926 14.1708 21.2864 14.4949 24.22 13.9375C30.8291 12.6812 36.9687 8.66921 39.8474 2.46469" stroke="#685BB8" stroke-width="2.65" stroke-miterlimit="1.5" stroke-linecap="round" stroke-linejoin="round"/>
    <path d="M30.5218 18.5443C28.3334 19.9474 25.9587 21.0158 23.3509 21.3223C18.1575 21.9324 12.7177 21.1226 8.77443 25.3249" stroke="#685BB8" stroke-width="2.65" stroke-miterlimit="1.5" stroke-linecap="round" stroke-linejoin="round"/>
  </symbol>

  <symbol id="icon-arrow-head" viewBox="0 0 101 98" width="101" height="98" fill="none">
    <path d="M71.6674 10.7111C80.803 24.3855 86.0196 40.0142 80.7461 55.9952C75.9861 70.42 63.0132 78.9641 48.1158 68.2622C41.0635 63.1962 36.4872 52.9723 41.0691 45.3764C46.1738 36.9138 57.5029 44.4112 60.5762 50.1704C67.7546 63.6215 63.1038 81.7597 47.3119 89.9534C28.6107 99.6567 20.562 81.1081 20.7098 81.1037" stroke="#665AB5" stroke-width="2.65" stroke-miterlimit="1.5" stroke-linecap="round" stroke-linejoin="round"/>
    <path d="M91.0256 14.5963C89.1011 14.9712 87.2152 14.5933 85.3117 14.3026C79.0611 13.3488 72.67 10.5339 68.7869 5.89197C71.0236 11.8454 71.6846 20.2492 66.9237 25.2906" stroke="#665AB5" stroke-width="2.65" stroke-miterlimit="1.5" stroke-linecap="round" stroke-linejoin="round"/>
  </symbol>
 
  <svg id="icon-diagram" viewBox="0 0 209 99" width="209" height="99" fill="none">
    <path d="M0.994141 83.4098C12.0642 83.4098 13.1354 97.8229 24.9196 97.8229C36.7038 97.8229 33.8471 56.8594 44.9171 56.8594C55.9871 56.8594 49.9164 22.3439 65.2716 22.3439C80.6268 22.3439 73.4848 56.8594 87.4116 56.8594C101.338 56.8594 99.1958 16.568 108.123 16.568C117.051 16.568 114.551 40.5499 125.264 40.5499C135.977 40.5499 130.977 0.994141 142.405 0.994141C153.832 0.994141 152.76 18.2608 163.116 18.2608C173.472 18.2608 174.543 38.2741 188.827 38.2741C203.111 38.2741 194.184 60.5811 207.753 60.5811" stroke="#6C5FBC" stroke-width="1.98779" stroke-linecap="round" stroke-linejoin="round"/>
    <path d="M173.092 21.9824C174.912 21.9824 176.503 23.5729 176.503 25.6816C176.503 27.7903 174.912 29.3809 173.092 29.3809C171.272 29.3806 169.682 27.7901 169.682 25.6816C169.682 23.5731 171.272 21.9827 173.092 21.9824Z" fill="#C5BFED" stroke="#6C5FBC" stroke-width="2.22012"/>
    <rect x="172.476" y="3.78418" width="25.6489" height="11.9084" rx="5.95422" fill="#6C5FBC"/>
    <path d="M181.119 10.5006C181.119 10.693 181.069 10.8743 180.969 11.0445C180.873 11.211 180.728 11.3498 180.536 11.4608C180.347 11.5681 180.123 11.631 179.864 11.6495V12.0991H179.509V11.644C179.139 11.6107 178.841 11.4997 178.616 11.3109C178.39 11.1185 178.273 10.8595 178.266 10.5339H179.098C179.121 10.8003 179.257 10.9613 179.509 11.0168V9.95667C179.243 9.89007 179.028 9.82347 178.865 9.75686C178.702 9.69026 178.562 9.58295 178.443 9.43495C178.325 9.28694 178.266 9.08528 178.266 8.82997C178.266 8.50805 178.381 8.24533 178.61 8.04182C178.843 7.83831 179.143 7.72176 179.509 7.69216V7.24258H179.864V7.69216C180.22 7.72176 180.503 7.82906 180.714 8.01407C180.928 8.19908 181.048 8.4544 181.074 8.78001H180.236C180.225 8.67271 180.186 8.5802 180.12 8.5025C180.057 8.42109 179.972 8.36374 179.864 8.33044V9.37944C180.142 9.44975 180.36 9.5182 180.519 9.5848C180.682 9.64771 180.823 9.75316 180.941 9.90117C181.059 10.0455 181.119 10.2453 181.119 10.5006ZM179.076 8.79111C179.076 8.91322 179.113 9.01312 179.187 9.09083C179.261 9.16483 179.369 9.22589 179.509 9.27399V8.31379C179.376 8.33229 179.27 8.38224 179.193 8.46365C179.115 8.54505 179.076 8.65421 179.076 8.79111ZM179.864 11.0279C180.005 11.002 180.114 10.9446 180.192 10.8558C180.273 10.767 180.314 10.6597 180.314 10.5339C180.314 10.4118 180.275 10.3137 180.197 10.2397C180.12 10.1657 180.009 10.1047 179.864 10.0566V11.0279ZM181.864 10.8281V10.2175L183.679 7.62H184.584V10.1509H185.072V10.8281H184.584V11.6162H183.807V10.8281H181.864ZM183.857 8.45255L182.719 10.1509H183.857V8.45255ZM185.567 9.5404C185.567 8.90027 185.682 8.39889 185.911 8.03627C186.144 7.67365 186.529 7.49235 187.065 7.49235C187.602 7.49235 187.985 7.67365 188.214 8.03627C188.447 8.39889 188.564 8.90027 188.564 9.5404C188.564 10.1842 188.447 10.6893 188.214 11.0556C187.985 11.422 187.602 11.6051 187.065 11.6051C186.529 11.6051 186.144 11.422 185.911 11.0556C185.682 10.6893 185.567 10.1842 185.567 9.5404ZM187.798 9.5404C187.798 9.26659 187.78 9.03718 187.743 8.85217C187.709 8.66346 187.639 8.5099 187.532 8.39149C187.428 8.27309 187.273 8.21388 187.065 8.21388C186.858 8.21388 186.701 8.27309 186.594 8.39149C186.49 8.5099 186.42 8.66346 186.383 8.85217C186.349 9.03718 186.333 9.26659 186.333 9.5404C186.333 9.82162 186.349 10.0584 186.383 10.2508C186.416 10.4395 186.486 10.5931 186.594 10.7115C186.701 10.8262 186.858 10.8836 187.065 10.8836C187.273 10.8836 187.43 10.8262 187.537 10.7115C187.645 10.5931 187.715 10.4395 187.748 10.2508C187.781 10.0584 187.798 9.82162 187.798 9.5404ZM190.054 10.4784C190.084 10.6412 190.15 10.767 190.254 10.8558C190.361 10.9409 190.504 10.9835 190.681 10.9835C190.911 10.9835 191.077 10.8891 191.181 10.7004C191.284 10.508 191.336 10.1861 191.336 9.73466C191.251 9.85307 191.131 9.94557 190.976 10.0122C190.824 10.0788 190.659 10.1121 190.482 10.1121C190.245 10.1121 190.03 10.064 189.838 9.96777C189.649 9.86787 189.499 9.72171 189.388 9.5293C189.277 9.33319 189.222 9.09638 189.222 8.81886C189.222 8.40814 189.344 8.08253 189.588 7.84201C189.832 7.5978 190.165 7.47569 190.587 7.47569C191.112 7.47569 191.482 7.64405 191.697 7.98077C191.915 8.31749 192.025 8.82441 192.025 9.50155C192.025 9.98258 191.982 10.3766 191.897 10.6838C191.815 10.9909 191.673 11.224 191.47 11.3831C191.27 11.5422 190.996 11.6218 190.648 11.6218C190.374 11.6218 190.141 11.57 189.949 11.4664C189.756 11.359 189.608 11.2203 189.505 11.0501C189.405 10.8762 189.347 10.6856 189.333 10.4784H190.054ZM190.643 9.47935C190.835 9.47935 190.987 9.42015 191.098 9.30174C191.209 9.18333 191.264 9.02423 191.264 8.82441C191.264 8.6061 191.205 8.43774 191.087 8.31934C190.972 8.19723 190.815 8.13618 190.615 8.13618C190.415 8.13618 190.256 8.19908 190.137 8.32489C190.023 8.447 189.965 8.6098 189.965 8.81331C189.965 9.00942 190.021 9.17038 190.132 9.29619C190.247 9.4183 190.417 9.47935 190.643 9.47935Z" fill="white"/>
  </svg>

  <symbol id="icon-lines-foot" viewBox="0 0 39 36" width="39" height="36" fill="none">
    <path d="M27.3376 30.445C30.2316 23.9755 32.3782 17.2635 34.9719 10.689" stroke="#685BB8" stroke-width="2.65" stroke-miterlimit="1.5" stroke-linecap="round" stroke-linejoin="round"/>
    <path d="M7.92894 34.3257C15.8316 25.8683 22.9341 16.4185 29.461 6.88201" stroke="#685BB8" stroke-width="2.65" stroke-miterlimit="1.5" stroke-linecap="round" stroke-linejoin="round"/>
    <path d="M1.63457 15.161C9.15324 12.6007 18.5471 5.75686 25.4724 1.32494" stroke="#685BB8" stroke-width="2.65" stroke-miterlimit="1.5" stroke-linecap="round" stroke-linejoin="round"/>
  </symbol>
  
<!--
  <symbol id="icon-line1-mob" viewBox="0 0 375 148" width="375" height="148" fill="none">
    <path opacity="0.2" d="M733.05 -214.12C701.33 -227.648 672.193 -243.296 636.035 -249.691C610.209 -254.258 583.64 -253.931 556.83 -247.513C506.843 -235.547 457.279 -216.141 415.02 -189.097C371.837 -161.462 325.764 -135.211 289.505 -101.023C255.794 -69.2369 225.778 -33.918 190.149 -3.58695C130.453 47.2333 48.2487 73.6745 -29.4921 94.2165C-70.62 105.084 -111.958 115.732 -153.319 125.662C-179.274 131.894 -206.456 135.847 -231.418 145.167" stroke="#A596FF" stroke-width="4.01667" stroke-linecap="round"/>
  </symbol>

  <symbol id="icon-line2-mob" viewBox="0 0 375 166" width="375" height="166" fill="none">
    <path opacity="0.2" d="M733.883 -169.034C704.525 -181.563 677.557 -196.055 644.09 -201.98C620.188 -206.212 595.598 -205.911 570.785 -199.972C524.522 -188.898 478.652 -170.936 439.543 -145.9C399.58 -120.318 356.941 -96.0168 323.387 -64.3662C292.19 -34.939 264.414 -2.24062 231.442 25.839C176.197 72.887 100.118 97.36 28.1698 116.371C-9.89362 126.429 -48.1515 136.284 -86.431 145.474C-110.453 151.241 -135.609 154.898 -158.711 163.525" stroke="#A596FF" stroke-width="4.01667" stroke-linecap="round"/>
  </symbol>

  <svg id="icon-line3-mob" viewBox="0 0 76 233" width="76" height="233" fill="none">
    <path opacity="0.2" d="M103.179 1.60735C88.7476 10.665 72.4103 19.1883 59.3212 29.9431C46.5133 40.4669 34.2679 54.0121 24.6914 66.6241C7.04358 89.8656 3.12393 111.912 1.87487 136.484C-0.186457 177.036 9.79696 212.978 26.7854 247.337C38.032 270.083 50.2186 292.065 63.9779 313.45C68.1788 319.979 71.795 328.042 79.8594 331.44" stroke="#A596FF" stroke-width="3.21454" stroke-linecap="round"/>
  </svg>

  <symbol id="icon-line4-mob" viewBox="0 0 40 232" width="40" height="232" fill="none">
    <path opacity="0.2" d="M106.211 1.60754C91.3476 10.9367 74.5213 19.7153 61.0407 30.7929C47.8497 41.6325 35.2385 55.5848 25.3759 68.5759C7.20121 92.5161 3.16621 115.226 1.88214 140.539C-0.236944 182.313 10.0495 219.339 27.5509 254.735C39.137 278.168 51.6913 300.814 65.8654 322.845C70.1929 329.571 73.9184 337.877 82.225 341.379" stroke="#A596FF" stroke-width="3.21454" stroke-linecap="round"/>
  </symbol>
-->


</svg>